<svg width="181" height="30" viewBox="0 0 181 30" fill="none" xmlns="http://www.w3.org/2000/svg">
<path d="M92.8 11.28V14.78H97.5V17H92.8V20.7H98.1V22.98H90V9H98.1V11.28H92.8Z" fill="white"/>
<path d="M105.265 20.4L108.065 11.9H111.045L106.945 22.98H103.545L99.4645 11.9H102.465L105.265 20.4Z" fill="white"/>
<path d="M122.917 17.2C122.917 17.6 122.891 17.96 122.837 18.28H114.737C114.804 19.08 115.084 19.7067 115.577 20.16C116.071 20.6133 116.677 20.84 117.397 20.84C118.437 20.84 119.177 20.3933 119.617 19.5H122.637C122.317 20.5667 121.704 21.4467 120.797 22.14C119.891 22.82 118.777 23.16 117.457 23.16C116.391 23.16 115.431 22.9267 114.577 22.46C113.737 21.98 113.077 21.3067 112.597 20.44C112.131 19.5733 111.897 18.5733 111.897 17.44C111.897 16.2933 112.131 15.2867 112.597 14.42C113.064 13.5533 113.717 12.8867 114.557 12.42C115.397 11.9533 116.364 11.72 117.457 11.72C118.511 11.72 119.451 11.9467 120.277 12.4C121.117 12.8533 121.764 13.5 122.217 14.34C122.684 15.1667 122.917 16.12 122.917 17.2ZM120.017 16.4C120.004 15.68 119.744 15.1067 119.237 14.68C118.731 14.24 118.111 14.02 117.377 14.02C116.684 14.02 116.097 14.2333 115.617 14.66C115.151 15.0733 114.864 15.6533 114.757 16.4H120.017Z" fill="white"/>
<path d="M131.101 11.74C132.421 11.74 133.488 12.16 134.301 13C135.114 13.8267 135.521 14.9867 135.521 16.48V22.98H132.721V16.86C132.721 15.98 132.501 15.3067 132.061 14.84C131.621 14.36 131.021 14.12 130.261 14.12C129.488 14.12 128.874 14.36 128.421 14.84C127.981 15.3067 127.761 15.98 127.761 16.86V22.98H124.961V11.9H127.761V13.28C128.134 12.8 128.608 12.4267 129.181 12.16C129.768 11.88 130.408 11.74 131.101 11.74Z" fill="white"/>
<path d="M141.444 14.2V19.56C141.444 19.9333 141.53 20.2067 141.704 20.38C141.89 20.54 142.197 20.62 142.624 20.62H143.924V22.98H142.164C139.804 22.98 138.624 21.8333 138.624 19.54V14.2H137.304V11.9H138.624V9.16H141.444V11.9H143.924V14.2H141.444Z" fill="white"/>
<path d="M148.698 9.02V17.66C148.698 18.6067 148.944 19.3333 149.438 19.84C149.931 20.3333 150.624 20.58 151.518 20.58C152.424 20.58 153.124 20.3333 153.618 19.84C154.111 19.3333 154.357 18.6067 154.357 17.66V9.02H157.177V17.64C157.177 18.8267 156.917 19.8333 156.397 20.66C155.891 21.4733 155.204 22.0867 154.338 22.5C153.484 22.9133 152.531 23.12 151.478 23.12C150.438 23.12 149.491 22.9133 148.638 22.5C147.798 22.0867 147.131 21.4733 146.638 20.66C146.144 19.8333 145.897 18.8267 145.897 17.64V9.02H148.698Z" fill="white"/>
<path d="M162.683 13.5C163.043 12.9933 163.536 12.5733 164.163 12.24C164.803 11.8933 165.529 11.72 166.343 11.72C167.289 11.72 168.143 11.9533 168.903 12.42C169.676 12.8867 170.283 13.5533 170.723 14.42C171.176 15.2733 171.403 16.2667 171.403 17.4C171.403 18.5333 171.176 19.54 170.723 20.42C170.283 21.2867 169.676 21.96 168.903 22.44C168.143 22.92 167.289 23.16 166.343 23.16C165.529 23.16 164.809 22.9933 164.183 22.66C163.569 22.3267 163.069 21.9067 162.683 21.4V28.26H159.883V11.9H162.683V13.5ZM168.543 17.4C168.543 16.7333 168.403 16.16 168.123 15.68C167.856 15.1867 167.496 14.8133 167.043 14.56C166.603 14.3067 166.123 14.18 165.603 14.18C165.096 14.18 164.616 14.3133 164.163 14.58C163.723 14.8333 163.363 15.2067 163.083 15.7C162.816 16.1933 162.683 16.7733 162.683 17.44C162.683 18.1067 162.816 18.6867 163.083 19.18C163.363 19.6733 163.723 20.0533 164.163 20.32C164.616 20.5733 165.096 20.7 165.603 20.7C166.123 20.7 166.603 20.5667 167.043 20.3C167.496 20.0333 167.856 19.6533 168.123 19.16C168.403 18.6667 168.543 18.08 168.543 17.4Z" fill="white"/>
<circle cx="178.62" cy="19" r="2" fill="white"/>
<g clip-path="url(#clip0_98_2280)">
<path d="M18.5147 0C15.4686 0 12.5473 1.21005 10.3934 3.36396L3.36396 10.3934C1.21005 12.5473 0 15.4686 0 18.5147C0 24.8579 5.14214 30 11.4853 30C14.5314 30 17.4527 28.7899 19.6066 26.636L24.4689 21.7737C24.4689 21.7736 24.469 21.7738 24.4689 21.7737L38.636 7.6066C39.6647 6.57791 41.0599 6 42.5147 6C44.9503 6 47.0152 7.58741 47.7311 9.78407L52.2022 5.31296C50.1625 2.11834 46.586 0 42.5147 0C39.4686 0 36.5473 1.21005 34.3934 3.36396L15.364 22.3934C14.3353 23.4221 12.9401 24 11.4853 24C8.45584 24 6 21.5442 6 18.5147C6 17.0599 6.57791 15.6647 7.6066 14.636L14.636 7.6066C15.6647 6.57791 17.0599 6 18.5147 6C20.9504 6 23.0152 7.58748 23.7311 9.78421L28.2023 5.31307C26.1626 2.1184 22.5861 0 18.5147 0Z" fill="#E14817"/>
<path d="M39.3639 22.3934C38.3352 23.4221 36.94 24 35.4852 24C33.0499 24 30.9852 22.413 30.2691 20.2167L25.7981 24.6877C27.8379 27.8819 31.4142 30 35.4852 30C38.5313 30 41.4526 28.7899 43.6065 26.636L62.6359 7.6066C63.6646 6.57791 65.0598 6 66.5146 6C69.5441 6 71.9999 8.45584 71.9999 11.4853C71.9999 12.9401 71.422 14.3353 70.3933 15.364L63.3639 22.3934C62.3352 23.4221 60.94 24 59.4852 24C57.0497 24 54.9849 22.4127 54.2689 20.2162L49.7979 24.6873C51.8376 27.8818 55.414 30 59.4852 30C62.5313 30 65.4526 28.7899 67.6065 26.636L74.6359 19.6066C76.7898 17.4527 77.9999 14.5314 77.9999 11.4853C77.9999 5.14214 72.8578 0 66.5146 0C63.4685 0 60.5472 1.21005 58.3933 3.36396L39.3639 22.3934Z" fill="#E14817"/>
</g>
<defs>
<clipPath id="clip0_98_2280">
<rect width="78" height="30" fill="white"/>
</clipPath>
</defs>
</svg>
