<svg width="199" height="28" viewBox="0 0 199 28" fill="none" xmlns="http://www.w3.org/2000/svg">
<g clip-path="url(#clip0_627_2542)">
<path d="M17.3279 0C14.477 0 11.743 1.12938 9.72716 3.1397L3.14832 9.70051C1.13248 11.7108 0 14.4374 0 17.2804C0 23.2007 4.81252 28 10.7491 28C13.5999 28 16.3339 26.8706 18.3498 24.8603L22.9004 20.3221C22.9004 20.322 22.9005 20.3222 22.9004 20.3221L36.1593 7.09949C37.1221 6.13938 38.4279 5.6 39.7894 5.6C42.0689 5.6 44.0014 7.08158 44.6714 9.1318L48.8559 4.95876C46.947 1.97712 43.5997 0 39.7894 0C36.9386 0 34.2045 1.12938 32.1887 3.1397L14.3791 20.9005C13.4164 21.8606 12.1106 22.4 10.7491 22.4C7.9138 22.4 5.61539 20.1079 5.61539 17.2804C5.61539 15.9226 6.15625 14.6204 7.119 13.6603L13.6978 7.09949C14.6606 6.13938 15.9663 5.6 17.3279 5.6C19.6074 5.6 21.5399 7.08165 22.2099 9.13193L26.3945 4.95887C24.4855 1.97717 21.1383 0 17.3279 0Z" fill="#E14817"/>
<path d="M36.8409 20.9005C35.8782 21.8606 34.5724 22.4 33.2108 22.4C30.9317 22.4 28.9993 20.9188 28.3291 18.8689L24.1447 23.0419C26.0538 26.0231 29.4008 28 33.2108 28C36.0617 28 38.7957 26.8706 40.8116 24.8603L58.6211 7.09949C59.5839 6.13938 60.8896 5.6 62.2512 5.6C65.0865 5.6 67.3849 7.89212 67.3849 10.7196C67.3849 12.0774 66.844 13.3796 65.8812 14.3397L59.3024 20.9005C58.3397 21.8606 57.0339 22.4 55.6724 22.4C53.393 22.4 51.4606 20.9185 50.7905 18.8685L46.6061 23.0415C48.515 26.023 51.8622 28 55.6724 28C58.5232 28 61.2573 26.8706 63.2731 24.8603L69.8519 18.2995C71.8677 16.2892 73.0002 13.5626 73.0002 10.7196C73.0002 4.79933 68.1878 0 62.2512 0C59.4003 0 56.6663 1.12938 54.6505 3.1397L36.8409 20.9005Z" fill="#E14817"/>
</g>
<path d="M88.5224 4.84112V9.20249H94.435V11.9688H88.5224V16.5794H95.1898V19.4206H85V2H95.1898V4.84112H88.5224Z" fill="#0F1017"/>
<path d="M104.203 16.2056L107.725 5.61371H111.474L106.316 19.4206H102.039L96.9064 5.61371H100.68L104.203 16.2056Z" fill="#0F1017"/>
<path d="M126.41 12.2181C126.41 12.7165 126.376 13.1651 126.309 13.5639H116.119C116.203 14.5607 116.555 15.3416 117.176 15.9065C117.797 16.4714 118.56 16.7539 119.466 16.7539C120.774 16.7539 121.705 16.1973 122.258 15.0841H126.058C125.655 16.4133 124.883 17.5099 123.743 18.3738C122.602 19.2212 121.202 19.6449 119.541 19.6449C118.199 19.6449 116.992 19.3541 115.918 18.7726C114.861 18.1745 114.031 17.3354 113.427 16.2555C112.84 15.1755 112.547 13.9294 112.547 12.5171C112.547 11.0883 112.84 9.83385 113.427 8.75389C114.014 7.67394 114.836 6.8432 115.893 6.26168C116.95 5.68017 118.166 5.38941 119.541 5.38941C120.866 5.38941 122.049 5.67186 123.089 6.23676C124.145 6.80166 124.959 7.60748 125.529 8.65421C126.116 9.68432 126.41 10.8723 126.41 12.2181ZM122.762 11.2212C122.745 10.324 122.418 9.60955 121.78 9.07788C121.143 8.5296 120.363 8.25545 119.44 8.25545C118.568 8.25545 117.83 8.52129 117.226 9.05296C116.639 9.56802 116.279 10.2908 116.145 11.2212H122.762Z" fill="#0F1017"/>
<path d="M136.705 5.41433C138.365 5.41433 139.707 5.9377 140.731 6.98442C141.754 8.01454 142.265 9.46002 142.265 11.3209V19.4206H138.743V11.7944C138.743 10.6978 138.466 9.85878 137.913 9.27726C137.359 8.67913 136.604 8.38006 135.648 8.38006C134.675 8.38006 133.904 8.67913 133.333 9.27726C132.78 9.85878 132.503 10.6978 132.503 11.7944V19.4206H128.981V5.61371H132.503V7.33333C132.973 6.7352 133.568 6.26999 134.29 5.9377C135.028 5.58879 135.833 5.41433 136.705 5.41433Z" fill="#0F1017"/>
<path d="M149.716 8.47975V15.1589C149.716 15.6241 149.825 15.9647 150.043 16.1807C150.278 16.3801 150.664 16.4798 151.2 16.4798H152.836V19.4206H150.622C147.653 19.4206 146.168 17.9917 146.168 15.134V8.47975H144.508V5.61371H146.168V2.19938H149.716V5.61371H152.836V8.47975H149.716Z" fill="#0F1017"/>
<path d="M158.841 2.02492V12.7913C158.841 13.9709 159.152 14.8764 159.772 15.5078C160.393 16.1225 161.265 16.4299 162.389 16.4299C163.53 16.4299 164.41 16.1225 165.031 15.5078C165.651 14.8764 165.962 13.9709 165.962 12.7913V2.02492H169.509V12.7664C169.509 14.2451 169.182 15.4995 168.528 16.5296C167.891 17.5431 167.027 18.3074 165.937 18.8224C164.863 19.3375 163.664 19.595 162.339 19.595C161.03 19.595 159.839 19.3375 158.766 18.8224C157.709 18.3074 156.871 17.5431 156.25 16.5296C155.629 15.4995 155.319 14.2451 155.319 12.7664V2.02492H158.841Z" fill="#0F1017"/>
<path d="M176.435 7.60748C176.888 6.97612 177.508 6.45275 178.297 6.03738C179.102 5.6054 180.016 5.38941 181.039 5.38941C182.23 5.38941 183.304 5.68017 184.26 6.26168C185.233 6.8432 185.996 7.67394 186.549 8.75389C187.119 9.81724 187.405 11.055 187.405 12.4673C187.405 13.8795 187.119 15.134 186.549 16.2305C185.996 17.3105 185.233 18.1495 184.26 18.7477C183.304 19.3458 182.23 19.6449 181.039 19.6449C180.016 19.6449 179.11 19.4372 178.322 19.0218C177.55 18.6064 176.921 18.0831 176.435 17.4517V26H172.912V5.61371H176.435V7.60748ZM183.807 12.4673C183.807 11.6366 183.631 10.9221 183.278 10.324C182.943 9.70924 182.49 9.24403 181.92 8.92835C181.366 8.61267 180.762 8.45483 180.108 8.45483C179.471 8.45483 178.867 8.62098 178.297 8.95327C177.743 9.26895 177.29 9.73416 176.938 10.3489C176.603 10.9637 176.435 11.6864 176.435 12.5171C176.435 13.3479 176.603 14.0706 176.938 14.6854C177.29 15.3001 177.743 15.7736 178.297 16.1059C178.867 16.4216 179.471 16.5794 180.108 16.5794C180.762 16.5794 181.366 16.4133 181.92 16.081C182.49 15.7487 182.943 15.2752 183.278 14.6604C183.631 14.0457 183.807 13.3146 183.807 12.4673Z" fill="#0F1017"/>
<ellipse cx="196.484" cy="14.461" rx="2.516" ry="2.49221" fill="#0F1017"/>
<defs>
<clipPath id="clip0_627_2542">
<rect width="73" height="28" fill="white"/>
</clipPath>
</defs>
</svg>
